<?xml version="1.0" encoding="UTF-8"?>
<!DOCTYPE svg PUBLIC "-//W3C//DTD SVG 1.1//EN" "http://www.w3.org/Graphics/SVG/1.1/DTD/svg11.dtd">
<svg xmlns="http://www.w3.org/2000/svg" version="1.1" width="600px" height="500px" style="shape-rendering:geometricPrecision; text-rendering:geometricPrecision; image-rendering:optimizeQuality; fill-rule:evenodd; clip-rule:evenodd" xmlns:xlink="http://www.w3.org/1999/xlink">
<g><path style="opacity:0.85" fill="#000000" d="M 79.5,125.5 C 81.7224,125.178 83.5557,125.845 85,127.5C 86.3399,130.202 87.6733,132.869 89,135.5C 90.722,133.556 92.8887,132.556 95.5,132.5C 99.5233,134.537 103.857,136.037 108.5,137C 109.167,138.333 109.833,139.667 110.5,141C 118.391,142.59 121.391,147.424 119.5,155.5C 120.5,155.5 121.5,155.5 122.5,155.5C 123.495,159.488 124.495,163.488 125.5,167.5C 130.302,165.809 134.135,167.142 137,171.5C 142.169,180.174 144.169,189.508 143,199.5C 142.393,203.381 140.726,206.714 138,209.5C 136.822,219.632 139.488,228.632 146,236.5C 146.49,237.793 146.657,239.127 146.5,240.5C 144.278,240.822 142.444,240.155 141,238.5C 138.556,235.011 136.39,231.344 134.5,227.5C 132.939,228.347 131.439,228.014 130,226.5C 127.577,228.994 125.244,228.994 123,226.5C 122.457,223.83 122.957,221.33 124.5,219C 123.32,215.154 120.82,212.654 117,211.5C 116.686,208.135 116.519,204.969 116.5,202C 114.919,201.293 113.419,200.46 112,199.5C 109.309,202.614 105.975,204.614 102,205.5C 99.849,205.357 98.1824,204.357 97,202.5C 90.8945,193.077 88.3945,182.744 89.5,171.5C 83.0066,172.176 79.8399,169.176 80,162.5C 77.2595,161.718 74.4262,161.218 71.5,161C 70.5399,159.581 69.7065,158.081 69,156.5C 68.1392,150.415 68.4725,144.415 70,138.5C 71.4473,136.597 73.114,134.93 75,133.5C 75.2463,129.995 76.7463,127.329 79.5,125.5 Z M 80.5,131.5 C 82.5848,133.684 83.5848,136.351 83.5,139.5C 78.3726,138.958 75.706,141.291 75.5,146.5C 75.8595,149.079 76.5262,151.579 77.5,154C 76.6313,155.869 75.4646,156.369 74,155.5C 73.3333,151.167 73.3333,146.833 74,142.5C 75.2899,140.208 76.9565,138.208 79,136.5C 80.0086,134.975 80.5086,133.308 80.5,131.5 Z M 94.5,138.5 C 93.4336,140.701 92.767,143.035 92.5,145.5C 91.448,145.649 90.448,145.483 89.5,145C 90.3295,143.184 91.1628,141.351 92,139.5C 92.6708,138.748 93.5041,138.414 94.5,138.5 Z M 101.5,140.5 C 104.797,140.329 105.131,140.995 102.5,142.5C 101.702,142.043 101.369,141.376 101.5,140.5 Z M 113.5,147.5 C 114.83,150.44 114.663,153.44 113,156.5C 111.519,153.185 111.686,150.185 113.5,147.5 Z M 100.5,149.5 C 101.867,152.268 102.867,155.268 103.5,158.5C 102.68,160.111 101.346,160.778 99.5,160.5C 99.423,156.785 99.7564,153.119 100.5,149.5 Z M 112.5,189.5 C 113.656,183.014 111.99,177.514 107.5,173C 110.436,168.61 113.936,164.777 118,161.5C 119.58,164.972 119.913,168.638 119,172.5C 116.456,177.548 114.789,182.881 114,188.5C 113.617,189.056 113.117,189.389 112.5,189.5 Z M 85.5,162.5 C 87.5,162.5 89.5,162.5 91.5,162.5C 91.2407,166.068 89.2407,167.401 85.5,166.5C 85.5,165.167 85.5,163.833 85.5,162.5 Z M 135.5,182.5 C 138.231,187.405 139.064,192.738 138,198.5C 137.608,195.545 136.108,193.378 133.5,192C 134.61,188.951 135.277,185.784 135.5,182.5 Z M 126.5,186.5 C 127.097,186.735 127.43,187.235 127.5,188C 126.061,190.705 125.061,193.538 124.5,196.5C 123.022,196.762 121.689,196.429 120.5,195.5C 122.552,192.464 124.552,189.464 126.5,186.5 Z M 121.5,206.5 C 122.833,206.5 124.167,206.5 125.5,206.5C 125.649,207.552 125.483,208.552 125,209.5C 123.271,209.026 122.105,208.026 121.5,206.5 Z M 128.5,215.5 C 129.077,214.227 129.743,214.227 130.5,215.5C 130.03,216.463 129.363,216.463 128.5,215.5 Z"/></g>
<g><path style="opacity:0.889" fill="#080805" d="M 523.5,135.5 C 526.5,135.5 529.5,135.5 532.5,135.5C 532.34,137.199 532.506,138.866 533,140.5C 542.399,137.903 550.899,139.57 558.5,145.5C 560.522,148.356 563.022,150.689 566,152.5C 565.058,161.789 564.391,171.123 564,180.5C 556.518,185.984 549.685,192.151 543.5,199C 532.474,202.833 522.974,200.667 515,192.5C 497.92,197.859 480.754,203.026 463.5,208C 467.299,210.797 470.799,213.964 474,217.5C 482.189,231.742 490.189,246.075 498,260.5C 502.753,279.082 508.086,297.416 514,315.5C 515.604,325.805 518.271,335.805 522,345.5C 524.043,347.208 525.71,349.208 527,351.5C 531.283,354.115 535.283,357.115 539,360.5C 544.786,374.076 540.286,381.909 525.5,384C 511.554,385.009 497.72,384.176 484,381.5C 480.565,384.935 477.065,388.435 473.5,392C 469.719,393.827 465.719,394.827 461.5,395C 402.474,397.069 343.474,399.569 284.5,402.5C 251.012,401.322 217.679,398.489 184.5,394C 175.434,390.867 166.434,387.533 157.5,384C 152.333,379.5 147.167,375 142,370.5C 135.418,361.004 129.085,351.338 123,341.5C 120.034,326.571 119.7,311.571 122,296.5C 127.771,283.742 134.771,271.742 143,260.5C 155.757,249.541 169.591,240.207 184.5,232.5C 186.921,228.66 189.088,224.66 191,220.5C 195.064,217.223 198.564,213.39 201.5,209C 210.947,202.793 220.947,197.627 231.5,193.5C 235.143,196.688 237.976,200.688 240,205.5C 240.916,214.258 240.416,222.924 238.5,231.5C 238.833,232.167 239.167,232.833 239.5,233.5C 256.524,233.023 271.524,238.189 284.5,249C 287.276,250.037 290.11,250.87 293,251.5C 301.53,245.321 310.364,239.487 319.5,234C 329.365,224.131 340.365,215.797 352.5,209C 362.947,205.631 372.947,201.298 382.5,196C 399.995,192.469 417.662,191.136 435.5,192C 444.616,194.483 452.782,198.65 460,204.5C 474.619,194.017 489.619,184.017 505,174.5C 504.771,168.867 504.271,163.2 503.5,157.5C 503.917,151.166 506.584,145.999 511.5,142C 515.959,140.476 519.959,138.309 523.5,135.5 Z"/></g>
<g><path style="opacity:1" fill="#fbfbfb" d="M 525.5,139.5 C 526.5,139.5 527.5,139.5 528.5,139.5C 528.38,141.199 528.046,142.865 527.5,144.5C 527.453,146 528.119,147 529.5,147.5C 542.46,141.3 553.127,143.967 561.5,155.5C 560.258,161.473 560.258,167.473 561.5,173.5C 561.423,175.299 560.923,176.966 560,178.5C 553.187,183.315 547.02,188.815 541.5,195C 535.789,196.631 530.122,196.631 524.5,195C 521.462,192.073 518.462,189.24 515.5,186.5C 514.3,187.531 512.966,188.365 511.5,189C 499.07,192.532 486.737,196.366 474.5,200.5C 473.304,200.154 473.304,199.654 474.5,199C 486.587,191.875 498.42,184.375 510,176.5C 508.654,168.27 508.321,159.936 509,151.5C 510.62,149.759 512.12,147.925 513.5,146C 517.959,144.476 521.959,142.309 525.5,139.5 Z"/></g>
<g><path style="opacity:1" fill="#e0d590" d="M 416.5,195.5 C 430.07,194.215 442.403,197.382 453.5,205C 458.667,209.5 463.833,214 469,218.5C 477.853,232.874 486.187,247.54 494,262.5C 498.74,281.047 504.073,299.381 510,317.5C 511.849,327.013 514.182,336.346 517,345.5C 518.333,347.5 519.667,349.5 521,351.5C 526.333,356.167 531.667,360.833 537,365.5C 537.833,372.686 534.666,377.186 527.5,379C 511.996,381.149 496.663,380.316 481.5,376.5C 481.822,372.65 480.489,369.483 477.5,367C 471.321,364.273 464.987,361.94 458.5,360C 453.221,355.196 447.221,351.696 440.5,349.5C 440.297,351.39 440.963,352.89 442.5,354C 446.844,356.171 450.844,358.837 454.5,362C 458.966,364.266 463.632,365.933 468.5,367C 477.852,370.142 480.019,375.976 475,384.5C 471.061,388.551 466.228,390.717 460.5,391C 430.659,391.987 400.826,393.153 371,394.5C 360.112,393.291 349.278,393.791 338.5,396C 319.296,396.102 300.13,396.936 281,398.5C 263.53,396.959 246.03,395.793 228.5,395C 214.272,392.619 199.938,390.952 185.5,390C 176.396,386.616 167.396,382.949 158.5,379C 154.667,375.833 150.833,372.667 147,369.5C 140.333,359.5 133.667,349.5 127,339.5C 126.054,332.836 125.221,326.169 124.5,319.5C 124.923,312.495 125.423,305.495 126,298.5C 128.59,293.651 130.924,288.651 133,283.5C 136.499,279.173 139.499,274.506 142,269.5C 144.797,265.701 147.964,262.201 151.5,259C 163.833,250.833 176.167,242.667 188.5,234.5C 195.693,221.14 206.026,210.974 219.5,204C 223.01,202.482 226.51,200.982 230,199.5C 236.188,204.292 238.188,210.625 236,218.5C 235.583,222.921 234.75,227.254 233.5,231.5C 233.884,235.715 236.217,238.215 240.5,239C 251.807,238.723 262.473,241.056 272.5,246C 282.048,253.064 292.715,257.731 304.5,260C 306.891,260.287 309.224,260.787 311.5,261.5C 323.154,256.562 334.82,251.729 346.5,247C 358.529,244.244 370.529,242.411 382.5,241.5C 376.472,249.695 370.639,258.028 365,266.5C 364.283,276.537 363.283,286.537 362,296.5C 360.296,307.344 356.963,317.677 352,327.5C 349.48,338.372 345.48,348.705 340,358.5C 335.333,362.5 330.667,366.5 326,370.5C 325.517,371.448 325.351,372.448 325.5,373.5C 336.477,368.689 344.31,360.689 349,349.5C 355.852,332.275 361.519,314.609 366,296.5C 367.165,286.852 368.165,277.186 369,267.5C 373.844,259.812 379.177,252.479 385,245.5C 386.422,242.97 386.755,240.303 386,237.5C 384.938,236.903 383.772,236.57 382.5,236.5C 370.415,238.343 358.415,240.509 346.5,243C 335.621,246.772 324.954,251.105 314.5,256C 308.889,256.951 303.556,256.117 298.5,253.5C 305.821,247.838 313.488,242.671 321.5,238C 331.387,228.102 342.387,219.769 354.5,213C 364.947,209.631 374.947,205.298 384.5,200C 395.182,197.511 405.849,196.011 416.5,195.5 Z"/></g>
<g><path style="opacity:1" fill="#11100b" d="M 444.5,227.5 C 451.831,230.489 456.165,235.822 457.5,243.5C 457.705,246.795 456.872,249.795 455,252.5C 449.615,258.884 444.615,265.55 440,272.5C 439.531,277.439 440.531,282.106 443,286.5C 446.073,287.617 449.24,287.784 452.5,287C 459.171,279.261 467.004,273.094 476,268.5C 490.584,271.202 494.25,279.202 487,292.5C 475.565,299.302 472.731,308.635 478.5,320.5C 475.52,320.759 473.687,319.426 473,316.5C 470.218,305.196 473.884,296.53 484,290.5C 488.998,283.696 488.165,277.862 481.5,273C 479.167,272.333 476.833,272.333 474.5,273C 466.586,278.244 459.252,284.244 452.5,291C 445.563,293.22 440.73,291.053 438,284.5C 436.524,279.924 436.19,275.257 437,270.5C 442.333,263.167 447.667,255.833 453,248.5C 453.667,245.5 453.667,242.5 453,239.5C 450.667,235.833 447.667,232.833 444,230.5C 443.53,229.423 443.697,228.423 444.5,227.5 Z"/></g>
<g><path style="opacity:1" fill="#11100d" d="M 160.5,261.5 C 174.087,260.759 186.42,264.259 197.5,272C 205.061,279.264 203.728,283.764 193.5,285.5C 182.195,283.757 171.195,280.924 160.5,277C 153.932,271.576 153.932,266.41 160.5,261.5 Z"/></g>
<g><path style="opacity:1" fill="#f2f2f1" d="M 161.5,265.5 C 164.898,265.18 168.232,265.513 171.5,266.5C 170.754,267.736 170.421,269.07 170.5,270.5C 171.552,270.649 172.552,270.483 173.5,270C 174.112,268.697 174.446,267.53 174.5,266.5C 184.067,267.783 192.067,271.949 198.5,279C 198.355,279.772 198.022,280.439 197.5,281C 186.231,280.621 175.231,278.621 164.5,275C 162.096,273.597 160.429,271.597 159.5,269C 159.978,267.697 160.645,266.531 161.5,265.5 Z"/></g>
<g><path style="opacity:1" fill="#131310" d="M 226.5,278.5 C 228.857,278.337 231.19,278.503 233.5,279C 247.215,283.513 260.882,288.179 274.5,293C 277.295,294.793 279.795,296.96 282,299.5C 283.165,303.684 281.665,306.517 277.5,308C 274.5,308.667 271.5,308.667 268.5,308C 254.981,305.186 241.648,301.52 228.5,297C 220.554,293.462 218.221,287.795 221.5,280C 223.382,279.802 225.048,279.302 226.5,278.5 Z"/></g>
<g><path style="opacity:1" fill="#f5f5f5" d="M 227.5,282.5 C 233.517,281.478 236.851,283.811 237.5,289.5C 239.912,289.756 241.579,288.756 242.5,286.5C 252.304,289.202 261.971,292.369 271.5,296C 274.148,297.649 276.481,299.649 278.5,302C 278.095,302.945 277.428,303.612 276.5,304C 259.559,302.682 243.226,298.682 227.5,292C 224.679,289.859 223.346,287.025 223.5,283.5C 225.099,283.768 226.432,283.434 227.5,282.5 Z"/></g>
<g><path style="opacity:1" fill="#171610" d="M 181.5,304.5 C 182.833,304.5 184.167,304.5 185.5,304.5C 184.167,309.167 181.167,312.167 176.5,313.5C 176.343,312.127 176.51,310.793 177,309.5C 178.707,307.963 180.207,306.296 181.5,304.5 Z"/></g>
<g><path style="opacity:1" fill="#14130d" d="M 173.5,350.5 C 177.001,352.342 180.668,354.009 184.5,355.5C 185.429,356.689 185.762,358.022 185.5,359.5C 181.53,358.118 177.53,356.618 173.5,355C 172.272,353.51 172.272,352.01 173.5,350.5 Z"/></g>
</svg>
